<svg width="82" height="30" viewBox="0 0 82 30" fill="none" xmlns="http://www.w3.org/2000/svg">
<path fill-rule="evenodd" clip-rule="evenodd" d="M81.3711 15.8843C80.9792 15.2586 79.3716 14.805 79.2996 14.7268C79.2356 14.414 79.2356 14.0855 79.2996 13.7648C79.2436 13.2956 79.0197 12.8732 78.6598 12.5526C78.4758 12.3883 74.9727 10.8007 74.3969 10.5582C73.909 10.3549 73.3652 10.3314 72.8693 10.5035C72.5014 10.699 72.1575 10.9415 71.8615 11.2387C71.7816 11.2934 71.5416 11.1526 71.5416 11.1526L69.8461 10.4566C69.6701 10.3784 69.894 10.1281 69.958 9.9795C70.006 9.89347 70.006 9.78398 69.958 9.69795C69.958 9.69795 67.4147 8.52481 67.1987 8.45442C66.9828 8.38403 66.7988 8.73597 66.7109 8.87675C66.6229 9.01753 66.5429 8.98624 66.5429 8.98624L66.087 8.87675C65.6231 8.84547 65.1513 8.90021 64.7034 9.04099C64.2715 9.20523 63.8796 9.4555 63.5517 9.77616L61.4482 12.5057L58.9049 15.8296C58.9049 15.8296 56.7374 18.3166 56.7134 19.6305C56.7134 20.4204 57.0733 21.1712 57.6972 21.6874L60.2405 22.8684C61.6322 22.1176 62.448 20.6472 62.344 19.0987C62.248 16.1111 59.1608 15.4385 59.1608 15.4385L60.0806 14.2575C60.0806 14.2575 63.8956 15.1257 63.8956 19.6618C63.8476 21.226 63.0638 22.6729 61.7761 23.5957L74.9248 29.6335C76.8363 30.7128 78.3399 29.086 78.6998 28.7028C79.0597 28.0615 79.3396 27.3811 79.5236 26.6694C79.5236 26.6694 81.587 19.6305 81.915 18.4496C82.1309 17.558 81.931 16.6195 81.3711 15.8843ZM65.7351 24.5264L65.5352 24.7219H64.4154L64.2555 24.5577V14.109L64.4554 13.9447H65.5272L65.7271 14.1402V24.5264H65.7351ZM65.6871 12.8654C65.3112 13.2017 64.7434 13.2017 64.3675 12.8654C64.1035 12.5135 64.1835 12.0208 64.5434 11.7627C64.8153 11.5671 65.1753 11.5593 65.4552 11.7314C65.8151 11.8878 65.983 12.3023 65.8231 12.6543C65.7911 12.7325 65.7431 12.8029 65.6791 12.8576L65.6871 12.8654ZM74.7488 24.6203C71.8615 25.7074 68.6144 24.2996 67.5027 21.4763C67.3427 21.0774 67.2387 20.6551 67.1747 20.2249C66.8548 17.2139 68.4464 14.1246 71.6696 13.8039C75.4846 13.4207 77.708 15.5715 78.0919 18.2775C78.3959 20.4595 77.74 23.5019 74.7488 24.6203Z" fill="#DE063A"/>
<path fill-rule="evenodd" clip-rule="evenodd" d="M60.2085 22.8684L61.7921 23.6036L60.2085 22.8762V22.8684Z" fill="#DE063A"/>
<path fill-rule="evenodd" clip-rule="evenodd" d="M54.418 14.1402L54.586 13.976H58.305C58.305 13.976 59.2888 14.0777 59.4567 14.1168L60.0966 14.281L59.2328 15.4385C58.9369 15.3681 58.6409 15.3212 58.345 15.2977H55.9536V23.4393H58.201C58.201 23.4393 58.8409 23.3611 59.0888 23.3298C59.5047 23.2516 59.9046 23.1108 60.2725 22.9075L61.8561 23.6427C61.0483 24.1823 60.1285 24.5264 59.1608 24.6516C57.7532 24.8002 54.666 24.7376 54.666 24.7376L54.434 24.5733L54.418 14.1481V14.1402Z" fill="#DE063A"/>
<path fill-rule="evenodd" clip-rule="evenodd" d="M0 9.44768L0.295924 9.1583H2.44737L11.0692 21.5232V9.50242L11.3651 9.17395H12.9727L13.2686 9.38511V24.7141L12.9727 25.0035H10.8612L2.19943 12.5917V24.7063L1.87152 24.9566H0.263932L0 24.7063V9.44768Z" fill="white"/>
<path fill-rule="evenodd" clip-rule="evenodd" d="M14.5883 9.44768L14.8842 9.1583H16.4438L16.7397 9.44768V24.7063L16.4838 24.9566H14.9242L14.5883 24.6672V9.44768Z" fill="white"/>
<path fill-rule="evenodd" clip-rule="evenodd" d="M18.0114 9.4946L18.3073 9.16613H19.8669L20.1628 9.4555V15.6575L27.225 9.17395H29.5924L29.7604 9.62756L22.1463 16.3223L30.2162 24.5421L30.0003 24.9566H27.5929L20.1948 17.2608V24.6594L19.9389 24.9488H18.3793L18.0434 24.6594L18.0034 9.48678L18.0114 9.4946Z" fill="white"/>
<path fill-rule="evenodd" clip-rule="evenodd" d="M32.0798 22.5008C32.0798 22.5008 32.8636 23.6505 33.9273 23.6818C34.991 23.713 35.7508 23.4237 36.1187 22.8919C36.4866 22.36 37.0865 20.8349 35.023 20.1623C33.2315 19.568 32.0238 19.3255 31.3679 18.1367C30.7121 16.9479 31.16 14.9771 32.2877 14.367C33.4154 13.757 33.8313 13.5615 35.7988 13.8039C36.2547 13.9369 36.6866 14.1402 37.0705 14.4296V14.2028L37.2704 14.0073H46.532L46.7 14.1715V20.8741C46.7 20.8741 46.7 23.7443 49.5153 23.6896C52.1466 23.6427 52.0586 20.8428 52.0586 20.8428V14.1715L52.2586 13.9447H53.4263L53.6262 14.1402V20.7567C53.6262 20.7567 53.7462 25.0661 49.4513 24.98C45.1564 24.894 45.2924 21.2495 45.2764 20.6707C45.2604 20.092 45.2764 15.2977 45.2764 15.2977H42.1412V24.5342L41.9412 24.7298H40.8535L40.6216 24.5342V15.2899H37.7423L36.9105 15.9156H36.5906C36.2947 15.548 35.9108 15.2586 35.4709 15.0709C34.7831 14.8754 33.2155 14.8598 32.7356 15.8296C32.3037 16.463 32.4157 17.3155 32.9995 17.8239C33.8233 18.2853 34.7031 18.6451 35.6148 18.8954C36.3267 19.1065 37.9023 19.9277 37.9742 21.3824C38.0462 22.8371 37.5743 23.9555 36.3667 24.4951C35.007 25.1756 33.3914 25.1599 32.0478 24.4404C31.6239 24.0963 31.232 23.713 30.8641 23.3142C30.8641 23.3142 30.8161 23.1108 30.8641 23.0561L31.7278 22.4304L32.0798 22.493V22.5008Z" fill="#DE063A"/>
<path fill-rule="evenodd" clip-rule="evenodd" d="M63.3197 3.85572C64.2155 3.85572 64.9433 4.5596 64.9513 5.43554C64.9513 6.31149 64.2315 7.02319 63.3357 7.03101C62.44 7.03101 61.7122 6.32713 61.7042 5.45119C61.7042 4.57524 62.424 3.87136 63.3197 3.86354V3.85572Z" fill="#DE063A"/>
<path fill-rule="evenodd" clip-rule="evenodd" d="M66.9508 2.48705C67.6146 2.48705 68.1505 3.01106 68.1505 3.66019C68.1505 4.30933 67.6146 4.83333 66.9508 4.83333C66.287 4.83333 65.7511 4.30933 65.7511 3.66019C65.7511 3.01106 66.287 2.48705 66.9508 2.48705Z" fill="#DE063A"/>
<path fill-rule="evenodd" clip-rule="evenodd" d="M60.9364 2.75297C61.2883 2.75297 61.5762 3.03452 61.5762 3.37864C61.5762 3.72276 61.2883 4.00431 60.9364 4.00431C60.5844 4.00431 60.2965 3.72276 60.2965 3.37864C60.2965 3.03452 60.5844 2.75297 60.9364 2.75297Z" fill="#DE063A"/>
<path fill-rule="evenodd" clip-rule="evenodd" d="M62.44 0C62.7919 0 63.0798 0.281553 63.0798 0.625674C63.0798 0.969795 62.7919 1.25135 62.44 1.25135C62.088 1.25135 61.8001 0.969795 61.8001 0.625674C61.8001 0.281553 62.088 0 62.44 0Z" fill="#DE063A"/>
<path fill-rule="evenodd" clip-rule="evenodd" d="M64.5594 1.72842C64.7114 1.72842 64.8393 1.85356 64.8393 2.00216C64.8393 2.15075 64.7114 2.27589 64.5594 2.27589C64.4075 2.27589 64.2795 2.15075 64.2795 2.00216C64.2795 1.85356 64.4075 1.72842 64.5594 1.72842Z" fill="#DE063A"/>
</svg>
